Coordinates
version=1
nRows=8
nColumns=63
inDegrees=yes

Units are S.I. units (second, meters, Newtons, ...)
If the header above contains a line with 'inDegrees', this indicates whether rotational values are in degrees (yes) or radians (no).

endheader
time	pelvis_tilt	pelvis_list	pelvis_rotation	pelvis_tx	pelvis_ty	pelvis_tz	hip_flexion_r	hip_adduction_r	hip_rotation_r	knee_angle_r	knee_angle_r_beta	ankle_angle_r	subtalar_angle_r	mtp_angle_r	hip_flexion_l	hip_adduction_l	hip_rotation_l	knee_angle_l	knee_angle_l_beta	ankle_angle_l	subtalar_angle_l	mtp_angle_l	L5_S1_Flex_Ext	L5_S1_Lat_Bending	L5_S1_axial_rotation	L4_L5_Flex_Ext	L4_L5_Lat_Bending	L4_L5_axial_rotation	L3_L4_Flex_Ext	L3_L4_Lat_Bending	L3_L4_axial_rotation	L2_L3_Flex_Ext	L2_L3_Lat_Bending	L2_L3_axial_rotation	L1_L2_Flex_Ext	L1_L2_Lat_Bending	L1_L2_axial_rotation	L1_T12_Flex_Ext	L1_T12_Lat_Bending	L1_T12_axial_rotation	Abs_r3	Abs_r2	Abs_r1	Abs_t1	Abs_t2	neck_flexion	neck_bending	neck_rotation	arm_flex_r	arm_add_r	arm_rot_r	elbow_flex_r	pro_sup_r	wrist_flex_r	wrist_dev_r	arm_flex_l	arm_add_l	arm_rot_l	elbow_flex_l	pro_sup_l	wrist_flex_l	wrist_dev_l
2.474576	-0.366801	-7.751869	88.682367	0.267554	1.043726	0.302621	4.553479	-1.911593	-16.712161	8.621066	0.150466	18.233325	16.998587	0.000000	3.624354	2.253570	2.176358	3.405287	0.059433	12.721196	-16.956029	0.000000	0.116355	-0.507857	0.025473	0.216084	-0.675450	0.027065	0.191160	-1.234805	0.027065	0.132983	-1.234805	0.022289	0.108048	-1.035623	0.020697	0.066485	-0.786671	0.019105	0.831115	-5.744985	0.141674	0.000000	0.000000	9.329389	7.667081	-12.237314	72.220667	-104.351227	-106.982194	2.410414	86.177509	-10.321214	18.726200	27.777952	-107.930799	139.333444	16.101013	3.637844	-10.494481	7.304526
2.491525	-0.518063	-7.741328	88.551710	0.267807	1.043867	0.302252	4.533276	-2.062085	-16.530467	8.657494	0.151102	18.108944	16.934574	0.000000	3.649061	2.407634	1.953296	3.404630	0.059422	12.818030	-16.869243	0.000000	0.120750	-0.521166	0.037623	0.224244	-0.693150	0.039975	0.198380	-1.267162	0.039975	0.138005	-1.267162	0.032920	0.112128	-1.062761	0.030569	0.068996	-0.807285	0.028217	0.862504	-5.895529	0.209250	0.000000	0.000000	9.026114	7.502655	-12.331410	72.342744	-104.507237	-108.438939	2.371491	86.068350	-9.949889	19.759825	28.156506	-107.998532	139.134369	16.041141	3.692450	-10.142052	7.361837
2.508475	-0.668019	-7.747084	88.452571	0.268040	1.043948	0.301937	4.530285	-2.210985	-16.377174	8.694097	0.151741	17.993270	16.861605	0.000000	3.690495	2.560876	1.732038	3.420434	0.059698	12.863487	-16.803644	0.000000	0.125706	-0.534629	0.050093	0.233448	-0.711057	0.053224	0.206522	-1.299897	0.053224	0.143669	-1.299897	0.043831	0.116730	-1.090215	0.040701	0.071828	-0.828140	0.037570	0.897903	-6.047830	0.278602	0.000000	0.000000	8.796220	7.323258	-12.457114	72.369069	-104.667691	-110.277523	2.337749	85.907126	-9.661260	20.701648	28.361289	-107.980101	139.573594	15.965543	3.762845	-9.811586	7.326138
2.525424	-0.819051	-7.777514	88.392938	0.268287	1.043962	0.301701	4.553189	-2.358605	-16.277735	8.724701	0.152275	17.903512	16.801770	0.000000	3.756935	2.712534	1.506582	3.451667	0.060243	12.852583	-16.743323	0.000000	0.131369	-0.549968	0.056157	0.243965	-0.731458	0.059666	0.215826	-1.337193	0.059666	0.150141	-1.337193	0.049137	0.121989	-1.121495	0.045627	0.075064	-0.851901	0.042117	0.938354	-6.221350	0.312326	0.000000	0.000000	8.680091	7.144392	-12.636292	72.367432	-104.793158	-112.223511	2.295516	85.652979	-9.435490	21.484082	28.528110	-107.913388	140.762603	15.859874	3.887639	-9.525268	7.169306
2.542373	-0.949033	-7.822320	88.372411	0.268477	1.043909	0.301527	4.590824	-2.485861	-16.227190	8.748722	0.152694	17.852067	16.748982	0.000000	3.828456	2.844841	1.294574	3.486703	0.060854	12.785396	-16.708983	0.000000	0.136887	-0.563370	0.059376	0.254212	-0.749283	0.063087	0.224891	-1.369779	0.063087	0.156448	-1.369779	0.051954	0.127113	-1.148825	0.048243	0.078217	-0.872661	0.044532	0.977767	-6.372959	0.330232	0.000000	0.000000	8.672008	6.969335	-12.831785	72.211083	-104.883364	-114.237406	2.258303	85.438222	-9.335917	21.925122	28.450953	-107.797041	142.300396	15.796186	4.021282	-9.256873	6.948748
2.559322	-1.060956	-7.887236	88.372788	0.268644	1.043778	0.301403	4.649650	-2.592216	-16.214411	8.761164	0.152911	17.851950	16.703322	0.000000	3.907791	2.957028	1.102062	3.522425	0.061478	12.679691	-16.697768	0.000000	0.142673	-0.575824	0.055746	0.264959	-0.765846	0.059230	0.234398	-1.400058	0.059230	0.163061	-1.400058	0.048777	0.132486	-1.174220	0.045293	0.081524	-0.891951	0.041809	1.019101	-6.513833	0.310040	0.000000	0.000000	8.784085	6.813868	-13.048607	71.893270	-104.903516	-116.565192	2.220187	85.199825	-9.379716	22.066710	28.402399	-107.708868	144.101065	15.743113	4.145752	-8.984877	6.753144
2.576271	-1.144489	-7.955158	88.379831	0.268771	1.043606	0.301338	4.714735	-2.669721	-16.221357	8.764677	0.152972	17.879809	16.666752	0.000000	3.973160	3.040619	0.912754	3.547041	0.061908	12.531867	-16.706757	0.000000	0.147773	-0.585802	0.054693	0.274430	-0.779116	0.058111	0.242777	-1.424318	0.058111	0.168890	-1.424318	0.047856	0.137222	-1.194567	0.044438	0.084438	-0.907407	0.041020	1.055531	-6.626706	0.304186	0.000000	0.000000	8.952204	6.659355	-13.326180	71.538828	-104.849441	-117.774073	2.193476	85.057784	-9.494655	21.925777	27.606933	-107.519602	146.292743	15.874230	4.136779	-8.779037	6.501647
2.593220	-1.207799	-8.025784	88.393002	0.268855	1.043389	0.301314	4.784853	-2.728297	-16.268850	8.762660	0.152937	17.930847	16.643870	0.000000	4.027037	3.104112	0.764649	3.562890	0.062184	12.369053	-16.744709	0.000000	0.151964	-0.594538	0.049251	0.282212	-0.790735	0.052329	0.249661	-1.445559	0.052329	0.173679	-1.445559	0.043095	0.141113	-1.212382	0.040016	0.086832	-0.920939	0.036938	1.085461	-6.725531	0.273919	0.000000	0.000000	9.175647	6.522127	-13.659202	71.100854	-104.705607	-118.415650	2.156686	84.993631	-9.672423	21.514497	26.479699	-107.336738	148.617659	16.129186	4.037661	-8.551524	6.255188
